<svg width="20" height="20" viewBox="0 0 20 20" fill="none" xmlns="http://www.w3.org/2000/svg">
<path d="M19.657 9.80264C19.2421 7.35472 18.0839 5.12449 16.3137 3.35426C14.5434 1.58404 12.3132 0.425794 9.86527 0.0109622C9.46276 -0.058861 9.08079 0.212217 9.01096 0.614728C8.94114 1.01724 9.21222 1.39921 9.61473 1.46904C11.7587 1.83458 13.7138 2.84496 15.2663 4.3975C16.8188 5.95004 17.8333 7.90509 18.1948 10.0491C18.2564 10.4105 18.5685 10.6652 18.9218 10.6652C18.9628 10.6652 19.0039 10.6611 19.045 10.6528C19.4557 10.5871 19.7268 10.2052 19.657 9.80264Z" fill="#E73237"/>
<path d="M15.8413 9.99112C15.5867 8.49608 14.8802 7.13247 13.8 6.04816C12.728 4.97206 11.3644 4.26561 9.86527 4.01096C9.46276 3.94114 9.08079 4.21222 9.01096 4.61473C8.94114 5.01724 9.21222 5.39921 9.61473 5.46904C10.8058 5.67029 11.8943 6.23709 12.7568 7.09961C13.6193 7.96213 14.1861 9.05056 14.3874 10.2417C14.449 10.6031 14.7611 10.8577 15.1143 10.8577C15.1554 10.8577 15.1965 10.8536 15.2376 10.8454C15.6401 10.7756 15.9111 10.3936 15.8413 9.99112Z" fill="#E73237"/>
<path d="M16.2802 14.8463C16.0543 14.604 15.8202 14.374 15.5902 14.1522C15.4752 14.0413 15.3602 13.9263 15.2452 13.8113L14.243 12.8092C13.8159 12.382 13.3148 12.1561 12.8014 12.1561C12.2839 12.1561 11.7869 12.382 11.3597 12.8092C11.2571 12.9118 11.1503 13.0145 11.0476 13.1172C10.8094 13.3513 10.5629 13.5936 10.3247 13.8483C9.90166 13.6429 9.4704 13.3595 8.96931 12.9652C8.31626 12.4313 7.75767 11.8973 7.2607 11.3305C6.99373 11.0225 6.5255 10.9896 6.21746 11.2607C5.90941 11.5277 5.87655 11.9959 6.14763 12.304C6.698 12.9365 7.3182 13.532 8.04107 14.1194C8.04518 14.1194 8.04518 14.1235 8.04929 14.1235C8.77627 14.6985 9.38825 15.0764 10.0413 15.3433C10.0577 15.3515 10.0742 15.3556 10.0906 15.3598C10.2467 15.4131 10.7149 15.5692 11.1749 15.1133C11.1831 15.1051 11.1954 15.0928 11.2037 15.0846C11.4829 14.7683 11.7787 14.4808 12.0908 14.1728C12.1976 14.0701 12.3044 13.9633 12.4112 13.8565C12.5098 13.7579 12.6617 13.6347 12.8096 13.6347C12.9575 13.6347 13.1053 13.7538 13.208 13.8565L14.2102 14.8587C14.3293 14.9778 14.4525 15.0969 14.5675 15.2119C14.7975 15.4337 15.0111 15.6473 15.2164 15.8649C15.2205 15.8732 15.2288 15.8773 15.2329 15.8814C15.3889 16.0374 15.5573 16.2839 15.2247 16.6371L13.9719 17.8898C13.705 18.1568 13.4092 18.2964 13.0355 18.3293C12.3989 18.3827 11.7212 18.2595 10.8381 17.9309C9.36772 17.3887 7.99589 16.5632 6.51318 15.331C4.72242 13.8319 3.31363 12.0329 2.31968 9.98336C1.96645 9.23995 1.55162 8.25421 1.4818 7.20686C1.44483 6.62364 1.60091 6.2047 1.97878 5.85147C2.25396 5.62147 2.49629 5.37092 2.72629 5.1327C2.87416 4.97663 3.0138 4.83287 3.16166 4.69734L3.16577 4.69323C3.45739 4.41394 3.69971 4.40983 3.97079 4.68091L5.99566 6.70578C5.99977 6.70989 6.00388 6.71399 6.00799 6.7181C6.09424 6.80025 6.19692 6.92757 6.20103 7.06722C6.20103 7.21508 6.09013 7.35883 5.99977 7.4533L4.74295 8.71012C4.45545 8.99762 4.45545 9.46585 4.74295 9.75747C5.03046 10.045 5.49869 10.045 5.7903 9.75747L7.04712 8.50065C7.47017 8.0776 7.68785 7.58062 7.68374 7.0549C7.67964 6.54149 7.45785 6.05683 7.04301 5.65843L5.02225 3.63767C4.17615 2.79157 3.02612 2.78747 2.15128 3.62534C1.97878 3.78553 1.8227 3.94982 1.66662 4.11C1.44894 4.3359 1.24358 4.54947 1.02179 4.7343C1.01357 4.74252 1.00536 4.75073 0.993035 4.75894C0.274267 5.412 -0.054313 6.2663 0.00729577 7.30133C0.093548 8.59922 0.574096 9.75747 0.984821 10.62V10.6241C2.07324 12.8667 3.60935 14.8299 5.5603 16.4646C7.17445 17.8036 8.68591 18.7113 10.3165 19.315C10.9161 19.5368 11.791 19.8161 12.7603 19.8161C12.8876 19.8161 13.0191 19.812 13.1505 19.7997H13.1546C13.8734 19.7381 14.4977 19.4465 15.0111 18.9331L16.2679 17.6762C16.272 17.6721 16.2761 17.668 16.2802 17.6639C17.0893 16.8219 17.0852 15.6637 16.2802 14.8463Z" fill="#E73237"/>
</svg>
