<svg width="30" height="30" viewBox="0 0 30 30" fill="none" xmlns="http://www.w3.org/2000/svg">
<path d="M25.3125 12.875H19.6875C19.17 12.875 18.75 12.455 18.75 11.9375C18.75 11.42 19.17 11 19.6875 11H25.3125C25.83 11 26.25 11.42 26.25 11.9375C26.25 12.455 25.83 12.875 25.3125 12.875Z" fill="#E73237"/>
<path d="M11.5625 23.5H8.4375C7.92 23.5 7.5 23.08 7.5 22.5625C7.5 22.045 7.92 21.625 8.4375 21.625H11.5625C12.08 21.625 12.5 22.045 12.5 22.5625C12.5 23.08 12.08 23.5 11.5625 23.5Z" fill="#E73237"/>
<path d="M10 23.1875C9.4825 23.1875 9.0625 22.7675 9.0625 22.25V12.25C9.0625 11.7325 9.4825 11.3125 10 11.3125C10.5175 11.3125 10.9375 11.7325 10.9375 12.25V22.25C10.9375 22.7675 10.5175 23.1875 10 23.1875Z" fill="#E73237"/>
<path d="M15.3125 14.75C14.795 14.75 14.375 14.33 14.375 13.8125V12.875H5.625V13.8125C5.625 14.33 5.205 14.75 4.6875 14.75C4.17 14.75 3.75 14.33 3.75 13.8125V11.9375C3.75 11.42 4.17 11 4.6875 11H15.3125C15.83 11 16.25 11.42 16.25 11.9375V13.8125C16.25 14.33 15.83 14.75 15.3125 14.75Z" fill="#E73237"/>
<path d="M25.3125 17.875H19.6875C19.17 17.875 18.75 17.455 18.75 16.9375C18.75 16.42 19.17 16 19.6875 16H25.3125C25.83 16 26.25 16.42 26.25 16.9375C26.25 17.455 25.83 17.875 25.3125 17.875Z" fill="#E73237"/>
<path d="M25.3125 22.875H19.6875C19.17 22.875 18.75 22.455 18.75 21.9375C18.75 21.42 19.17 21 19.6875 21H25.3125C25.83 21 26.25 21.42 26.25 21.9375C26.25 22.455 25.83 22.875 25.3125 22.875Z" fill="#E73237"/>
<path d="M26.5625 28.5H3.4375C1.54125 28.5 0 26.9588 0 25.0625V4.4375C0 2.54125 1.54125 1 3.4375 1H26.5625C28.4587 1 30 2.54125 30 4.4375V25.0625C30 26.9588 28.4587 28.5 26.5625 28.5ZM3.4375 2.875C2.57625 2.875 1.875 3.57625 1.875 4.4375V25.0625C1.875 25.9238 2.57625 26.625 3.4375 26.625H26.5625C27.4237 26.625 28.125 25.9238 28.125 25.0625V4.4375C28.125 3.57625 27.4237 2.875 26.5625 2.875H3.4375Z" fill="#E73237"/>
<path d="M29.0625 7.25H0.9375C0.42 7.25 0 6.83 0 6.3125C0 5.795 0.42 5.375 0.9375 5.375H29.0625C29.58 5.375 30 5.795 30 6.3125C30 6.83 29.58 7.25 29.0625 7.25Z" fill="#E73237"/>
</svg>
