<svg width="10" height="10" viewBox="0 0 10 10" fill="none" xmlns="http://www.w3.org/2000/svg">
<path d="M6.07177 2.15241V0.357048C6.07183 0.159795 6.23178 -6.2761e-05 6.42903 1.84848e-08C6.53019 2.0945e-05 6.62658 0.0429621 6.69429 0.118109L9.90859 3.68957C10.0261 3.82048 10.0308 4.01749 9.91966 4.15386L6.70534 8.08245C6.58045 8.23511 6.35545 8.25763 6.20277 8.13274C6.12007 8.06509 6.072 7.96395 6.07177 7.8571V6.07745C3.25031 6.16923 1.48959 7.37531 0.695993 9.75605C0.647318 9.9017 0.510982 9.99991 0.357422 9.99997C0.33817 10 0.318917 9.99846 0.299916 9.99532C0.127147 9.96714 0.000268936 9.81789 0.000268936 9.64282C0.000289917 5.43708 2.53209 2.34741 6.07177 2.15241ZM6.42892 5.35707C6.62618 5.35707 6.78608 5.51697 6.78608 5.71423V6.85708L9.17288 3.93956L6.78606 1.28775V2.4999C6.78606 2.69715 6.62616 2.85705 6.4289 2.85705C3.62173 2.85705 1.521 4.79957 0.901701 7.76351C2.05138 6.16494 3.90246 5.35707 6.42892 5.35707Z" fill="#E73237"/>
</svg>
