<svg width="20" height="21" viewBox="0 0 20 21" fill="none" xmlns="http://www.w3.org/2000/svg">
<g clip-path="url(#clip0)">
<path d="M13.5631 12.2661L10.7746 10.1746V5.91441C10.7746 5.48605 10.4283 5.1398 9.99996 5.1398C9.5716 5.1398 9.22535 5.48605 9.22535 5.91441V10.562C9.22535 10.806 9.34 11.0361 9.5352 11.1817L12.6336 13.5055C12.773 13.61 12.9357 13.6604 13.0975 13.6604C13.3338 13.6604 13.5662 13.5543 13.718 13.3498C13.9752 13.0081 13.9055 12.5225 13.5631 12.2661Z" fill="#E73237"/>
<path d="M10 0.5C4.48566 0.5 0 4.98566 0 10.5C0 16.0143 4.48566 20.5 10 20.5C15.5143 20.5 20 16.0143 20 10.5C20 4.98566 15.5143 0.5 10 0.5ZM10 18.9508C5.34082 18.9508 1.54918 15.1592 1.54918 10.5C1.54918 5.84082 5.34082 2.04918 10 2.04918C14.66 2.04918 18.4508 5.84082 18.4508 10.5C18.4508 15.1592 14.6592 18.9508 10 18.9508Z" fill="#E73237"/>
</g>
<defs>
<clipPath id="clip0">
<rect width="20" height="20" fill="white" transform="translate(0 0.5)"/>
</clipPath>
</defs>
</svg>
