<svg width="30" height="30" viewBox="0 0 30 30" fill="none" xmlns="http://www.w3.org/2000/svg">
<path d="M25.8436 6.22664L20.1938 0.881602C19.5929 0.313066 18.8063 0 17.9791 0H7.22266C5.44568 0 4 1.44568 4 3.22266V26.7773C4 28.5543 5.44568 30 7.22266 30H23.6289C25.4059 30 26.8516 28.5543 26.8516 26.7773V8.5677C26.8516 7.68592 26.4842 6.83262 25.8436 6.22664ZM24.1364 7.03125H19.7617C19.6002 7.03125 19.4688 6.89982 19.4688 6.73828V2.61539L24.1364 7.03125ZM23.6289 28.2422H7.22266C6.41494 28.2422 5.75781 27.5851 5.75781 26.7773V3.22266C5.75781 2.41494 6.41494 1.75781 7.22266 1.75781H17.7109V6.73828C17.7109 7.86908 18.6309 8.78906 19.7617 8.78906H25.0938V26.7773C25.0938 27.5851 24.4366 28.2422 23.6289 28.2422Z" fill="#E73237"/>
<path d="M21.6953 11.7188H8.80469C8.3193 11.7188 7.92578 12.1123 7.92578 12.5977C7.92578 13.083 8.3193 13.4766 8.80469 13.4766H21.6953C22.1807 13.4766 22.5742 13.083 22.5742 12.5977C22.5742 12.1123 22.1807 11.7188 21.6953 11.7188Z" fill="#E73237"/>
<path d="M21.6953 16.4062H8.80469C8.3193 16.4062 7.92578 16.7998 7.92578 17.2852C7.92578 17.7705 8.3193 18.1641 8.80469 18.1641H21.6953C22.1807 18.1641 22.5742 17.7705 22.5742 17.2852C22.5742 16.7998 22.1807 16.4062 21.6953 16.4062Z" fill="#E73237"/>
<path d="M13.0656 21.0938H8.80469C8.3193 21.0938 7.92578 21.4873 7.92578 21.9727C7.92578 22.458 8.3193 22.8516 8.80469 22.8516H13.0656C13.551 22.8516 13.9445 22.458 13.9445 21.9727C13.9445 21.4873 13.551 21.0938 13.0656 21.0938Z" fill="#E73237"/>
</svg>
