<svg width="33" height="30" viewBox="0 0 33 30" fill="none" xmlns="http://www.w3.org/2000/svg">
<path d="M4.45312 14.6562H11.9531C12.1396 14.6562 12.3184 14.5822 12.4503 14.4503C12.5822 14.3184 12.6562 14.1396 12.6562 13.9531V11.1406C12.6562 10.9541 12.5822 10.7753 12.4503 10.6434C12.3184 10.5116 12.1396 10.4375 11.9531 10.4375H4.45312C4.26664 10.4375 4.0878 10.5116 3.95594 10.6434C3.82408 10.7753 3.75 10.9541 3.75 11.1406V13.9531C3.75 14.1396 3.82408 14.3184 3.95594 14.4503C4.0878 14.5822 4.26664 14.6562 4.45312 14.6562ZM5.15625 11.8438H11.25V13.25H5.15625V11.8438Z" fill="#E73237"/>
<path d="M25.0781 10.4375H14.7656C14.5791 10.4375 14.4003 10.5116 14.2684 10.6434C14.1366 10.7753 14.0625 10.9541 14.0625 11.1406V13.9531C14.0625 14.1396 14.1366 14.3184 14.2684 14.4503C14.4003 14.5822 14.5791 14.6562 14.7656 14.6562H25.0781C25.2646 14.6562 25.4434 14.5822 25.5753 14.4503C25.7072 14.3184 25.7812 14.1396 25.7812 13.9531V11.1406C25.7812 10.9541 25.7072 10.7753 25.5753 10.6434C25.4434 10.5116 25.2646 10.4375 25.0781 10.4375ZM24.375 13.25H15.4688V11.8438H24.375V13.25Z" fill="#E73237"/>
<path d="M16.3906 16.0625H4.45312C4.26664 16.0625 4.0878 16.1366 3.95594 16.2684C3.82408 16.4003 3.75 16.5791 3.75 16.7656V19.5781C3.75 19.7646 3.82408 19.9434 3.95594 20.0753C4.0878 20.2072 4.26664 20.2812 4.45312 20.2812H16.3906C16.5771 20.2812 16.7559 20.2072 16.8878 20.0753C17.0197 19.9434 17.0938 19.7646 17.0938 19.5781V16.7656C17.0938 16.5791 17.0197 16.4003 16.8878 16.2684C16.7559 16.1366 16.5771 16.0625 16.3906 16.0625ZM15.6875 18.875H5.15625V17.4688H15.6875V18.875Z" fill="#E73237"/>
<path d="M15.5156 21.6875H8.01562C7.58066 21.688 7.16364 21.861 6.85608 22.1686C6.54851 22.4761 6.3755 22.8932 6.375 23.3281V25.2031C6.3755 25.6381 6.54851 26.0551 6.85608 26.3627C7.16364 26.6702 7.58066 26.8433 8.01562 26.8438H15.5156C15.9506 26.8433 16.3676 26.6702 16.6752 26.3627C16.9827 26.0551 17.1558 25.6381 17.1562 25.2031V23.3281C17.1558 22.8932 16.9827 22.4761 16.6752 22.1686C16.3676 21.861 15.9506 21.688 15.5156 21.6875ZM15.75 25.2031C15.75 25.2653 15.7253 25.3249 15.6814 25.3689C15.6374 25.4128 15.5778 25.4375 15.5156 25.4375H8.01562C7.95346 25.4375 7.89385 25.4128 7.8499 25.3689C7.80594 25.3249 7.78125 25.2653 7.78125 25.2031V23.3281C7.78125 23.266 7.80594 23.2064 7.8499 23.1624C7.89385 23.1184 7.95346 23.0938 8.01562 23.0938H15.5156C15.5778 23.0938 15.6374 23.1184 15.6814 23.1624C15.7253 23.2064 15.75 23.266 15.75 23.3281V25.2031Z" fill="#E73237"/>
<path d="M25.7812 6.45312C26.1696 6.45312 26.4844 6.13833 26.4844 5.75C26.4844 5.36167 26.1696 5.04688 25.7812 5.04688C25.3929 5.04688 25.0781 5.36167 25.0781 5.75C25.0781 6.13833 25.3929 6.45312 25.7812 6.45312Z" fill="#E73237"/>
<path d="M22.9688 6.45312C23.3571 6.45312 23.6719 6.13833 23.6719 5.75C23.6719 5.36167 23.3571 5.04688 22.9688 5.04688C22.5804 5.04688 22.2656 5.36167 22.2656 5.75C22.2656 6.13833 22.5804 6.45312 22.9688 6.45312Z" fill="#E73237"/>
<path d="M20.1562 6.45312C20.5446 6.45312 20.8594 6.13833 20.8594 5.75C20.8594 5.36167 20.5446 5.04688 20.1562 5.04688C19.7679 5.04688 19.4531 5.36167 19.4531 5.75C19.4531 6.13833 19.7679 6.45312 20.1562 6.45312Z" fill="#E73237"/>
<path fill-rule="evenodd" clip-rule="evenodd" d="M27.8906 2H1.64062C1.20566 2.0005 0.788645 2.17351 0.481076 2.48108C0.173507 2.78865 0.000496257 3.20566 0 3.64062V28.0156C0.000496257 28.4506 0.173507 28.8676 0.481076 29.1752C0.788645 29.4827 1.20566 29.6558 1.64062 29.6562H21.9495C22.3378 29.6562 22.6526 29.3414 22.6526 28.9531C22.6526 28.5648 22.3378 28.25 21.9495 28.25H1.64062C1.57846 28.25 1.51885 28.2253 1.4749 28.1814C1.43094 28.1374 1.40625 28.0778 1.40625 28.0156V9.03125H28.125V22.7294C28.125 23.1177 28.4398 23.4325 28.8281 23.4325C29.2164 23.4325 29.5312 23.1177 29.5312 22.7294V3.64062C29.5308 3.20566 29.3577 2.78865 29.0502 2.48108C28.7426 2.17351 28.3256 2.0005 27.8906 2ZM1.4749 3.4749C1.43094 3.51885 1.40625 3.57846 1.40625 3.64062V7.625H28.125V3.64062C28.125 3.57846 28.1003 3.51885 28.0564 3.4749C28.0124 3.43094 27.9528 3.40625 27.8906 3.40625H1.64062C1.57846 3.40625 1.51885 3.43094 1.4749 3.4749Z" fill="#E73237"/>
<path fill-rule="evenodd" clip-rule="evenodd" d="M26.4844 5.75C26.4844 6.13833 26.1696 6.45312 25.7812 6.45312C25.3929 6.45312 25.0781 6.13833 25.0781 5.75C25.0781 5.36167 25.3929 5.04688 25.7812 5.04688C26.1696 5.04688 26.4844 5.36167 26.4844 5.75ZM23.6719 5.75C23.6719 6.13833 23.3571 6.45312 22.9688 6.45312C22.5804 6.45312 22.2656 6.13833 22.2656 5.75C22.2656 5.36167 22.5804 5.04688 22.9688 5.04688C23.3571 5.04688 23.6719 5.36167 23.6719 5.75ZM20.8594 5.75C20.8594 6.13833 20.5446 6.45312 20.1562 6.45312C19.7679 6.45312 19.4531 6.13833 19.4531 5.75C19.4531 5.36167 19.7679 5.04688 20.1562 5.04688C20.5446 5.04688 20.8594 5.36167 20.8594 5.75Z" fill="#E73237"/>
<path d="M32.1173 26.2202C31.4439 26.2202 30.7826 26.1149 30.156 25.9078C29.8773 25.8128 29.5407 25.8831 29.3408 26.0408C29.3009 26.0722 29.2637 26.107 29.2232 26.1375L28.5571 26.6404C28.2462 26.8751 27.8241 26.9125 27.4935 26.7066C26.5516 26.1199 25.8716 25.4403 25.2903 24.5045C25.0856 24.1749 25.1231 23.7547 25.3563 23.4447L25.8803 22.7482C26.1157 22.513 26.2002 22.1696 26.099 21.8473C25.891 21.2174 25.7854 20.5564 25.7854 19.8827C25.7854 19.396 25.3895 19 24.9028 19H22.8827C22.396 19 22 19.396 22 19.8827C22 25.4614 26.5386 30 32.1173 30C32.604 30 33 29.604 33 29.1173V27.1029C33 26.6162 32.604 26.2202 32.1173 26.2202Z" fill="#E73237"/>
</svg>
