<svg width="20" height="20" viewBox="0 0 20 20" fill="none" xmlns="http://www.w3.org/2000/svg">
<path d="M17.0446 2.90436C15.164 1.03256 12.6622 0.00106812 9.99954 0C7.34286 0 4.83709 1.03058 2.94412 2.90192C1.04776 4.77644 0.00244376 7.2676 0 9.90736V9.91228C0.000305469 11.51 0.42048 13.1218 1.21806 14.593L0.0273395 20L5.50181 18.756C6.88835 19.454 8.43539 19.8221 9.99573 19.8227H9.9997C12.6559 19.8227 15.1617 18.792 17.055 16.9205C18.953 15.0444 19.9988 12.5564 20 9.915C20.0008 7.29216 18.9513 4.8024 17.0446 2.90436ZM9.99954 18.2617H9.99601C8.59499 18.2611 7.20677 17.9097 5.98171 17.2452L5.72282 17.1048L2.08254 17.932L2.87325 14.3419L2.72082 14.0793C1.96295 12.7736 1.56248 11.3322 1.56248 9.9106C1.56538 5.309 5.34983 1.56098 9.99926 1.56098C12.2454 1.56189 14.3558 2.43179 15.9419 4.01016C17.5518 5.61296 18.4381 7.7098 18.4374 9.91456C18.4355 14.5172 14.6503 18.2617 9.99954 18.2617Z" fill="#E73237"/>
<path d="M7.73688 5.88235H7.29853C7.14595 5.88235 6.89823 5.93943 6.68867 6.16723C6.47898 6.39523 5.88802 6.9462 5.88802 8.06684C5.88802 9.18744 6.70777 10.2702 6.822 10.4223C6.93643 10.5743 8.40436 12.9474 10.7293 13.8603C12.6615 14.619 13.0548 14.4681 13.4741 14.4301C13.8935 14.3922 14.8275 13.8792 15.0181 13.3475C15.2087 12.8157 15.2087 12.3597 15.1516 12.2645C15.0943 12.1696 14.9417 12.1127 14.7131 11.9989C14.4842 11.8849 13.3632 11.3246 13.1535 11.2484C12.9438 11.1726 12.7913 11.1346 12.6387 11.3627C12.4862 11.5904 12.037 12.1171 11.9035 12.2691C11.7702 12.4212 11.6367 12.4403 11.4079 12.3263C11.1791 12.212 10.4499 11.9673 9.57612 11.1915C8.89599 10.5877 8.42406 9.81776 8.29057 9.5898C8.1572 9.362 8.27635 9.23868 8.39106 9.125C8.49384 9.02308 8.6327 8.88364 8.74709 8.75072C8.86132 8.61768 8.89387 8.52276 8.97022 8.37076C9.04646 8.2188 9.00826 8.08576 8.95112 7.97192C8.89387 7.85792 8.45489 6.73168 8.25145 6.28123C8.08009 5.90191 7.89987 5.88907 7.73688 5.88235Z" fill="#E73237"/>
</svg>
