<svg width="12" height="12" viewBox="0 0 12 12" fill="none" xmlns="http://www.w3.org/2000/svg">
<path d="M8.59124 5.46975C8.53049 5.3355 8.39699 5.25 8.24999 5.25H6.74999V0.375C6.74999 0.168 6.58199 0 6.37499 0H4.87499C4.66799 0 4.49999 0.168 4.49999 0.375V5.25H2.99999C2.85299 5.25 2.71949 5.33625 2.65874 5.46975C2.59724 5.604 2.62124 5.76075 2.71799 5.87175L5.34299 8.87175C5.41424 8.9535 5.51699 9 5.62499 9C5.73299 9 5.83574 8.95275 5.90699 8.87175L8.53199 5.87175C8.62949 5.7615 8.65199 5.604 8.59124 5.46975Z" fill="#E73237"/>
<path d="M9.75 8.25V10.5H1.5V8.25H0V11.25C0 11.6648 0.336 12 0.75 12H10.5C10.9148 12 11.25 11.6648 11.25 11.25V8.25H9.75Z" fill="#E73237"/>
</svg>
