<svg width="87" height="51" viewBox="0 0 87 51" fill="none" xmlns="http://www.w3.org/2000/svg">
<path d="M86.4473 40.9999H1V42.0274H86.4473V40.9999Z" fill="#E73237"/>
<path fill-rule="evenodd" clip-rule="evenodd" d="M36 6.73973V41.3296H48.3291V3.99994L36 6.73973Z" fill="#E73237"/>
<path fill-rule="evenodd" clip-rule="evenodd" d="M48 3.99994V41.3296H54.8495V6.73973L48 3.99994Z" fill="#E73237"/>
<path fill-rule="evenodd" clip-rule="evenodd" d="M37 8.51365V10.0548L39.0548 9.71231V7.99994L37 8.51365Z" fill="white"/>
<path fill-rule="evenodd" clip-rule="evenodd" d="M40 7.34241V9.05478L42.0548 8.71231V6.99994L40 7.34241Z" fill="white"/>
<path fill-rule="evenodd" clip-rule="evenodd" d="M42 7.34241V9.05478L44.0548 8.54107V6.99994L42 7.34241Z" fill="white"/>
<path fill-rule="evenodd" clip-rule="evenodd" d="M45 6.51365V8.05478L47.0548 7.71231V5.99994L45 6.51365Z" fill="white"/>
<path fill-rule="evenodd" clip-rule="evenodd" d="M37 11.5136V13.0548L39.0548 12.7123V10.9999L37 11.5136Z" fill="white"/>
<path fill-rule="evenodd" clip-rule="evenodd" d="M40 10.5136V12.0548L42.0548 11.7123V9.99994L40 10.5136Z" fill="white"/>
<path fill-rule="evenodd" clip-rule="evenodd" d="M42 10.3424V12.0548L44.0548 11.7123V9.99994L42 10.3424Z" fill="white"/>
<path fill-rule="evenodd" clip-rule="evenodd" d="M45 9.34241V11.0548L47.0548 10.5411V8.99994L45 9.34241Z" fill="white"/>
<path fill-rule="evenodd" clip-rule="evenodd" d="M37 14.3424V16.0548L39.0548 15.5411V13.9999L37 14.3424Z" fill="white"/>
<path fill-rule="evenodd" clip-rule="evenodd" d="M40 14.3424V15.8835L42.0548 15.5411V13.9999L40 14.3424Z" fill="white"/>
<path fill-rule="evenodd" clip-rule="evenodd" d="M42 13.5136V15.0548L44.0548 14.7123V12.9999L42 13.5136Z" fill="white"/>
<path fill-rule="evenodd" clip-rule="evenodd" d="M45 12.3424V14.0548L47.0548 13.5411V11.9999L45 12.3424Z" fill="white"/>
<path fill-rule="evenodd" clip-rule="evenodd" d="M37 17.3424V19.0548L39.0548 18.7123V16.9999L37 17.3424Z" fill="white"/>
<path fill-rule="evenodd" clip-rule="evenodd" d="M40 17.3424V19.0548L42.0548 18.5411V16.9999L40 17.3424Z" fill="white"/>
<path fill-rule="evenodd" clip-rule="evenodd" d="M42 16.3424V17.8835L44.0548 17.5411V15.9999L42 16.3424Z" fill="white"/>
<path fill-rule="evenodd" clip-rule="evenodd" d="M45 16.3424V18.0548L47.0548 17.7123V15.9999L45 16.3424Z" fill="white"/>
<path fill-rule="evenodd" clip-rule="evenodd" d="M37 20.3424V22.0548L39.0548 21.7123V19.9999L37 20.3424Z" fill="white"/>
<path fill-rule="evenodd" clip-rule="evenodd" d="M40 20.3424V22.0548L42.0548 21.7123V19.9999L40 20.3424Z" fill="white"/>
<path fill-rule="evenodd" clip-rule="evenodd" d="M42 19.3424V21.0548L44.0548 20.5411V18.9999L42 19.3424Z" fill="white"/>
<path fill-rule="evenodd" clip-rule="evenodd" d="M45 19.5136V21.0548L47.0548 20.7123V18.9999L45 19.5136Z" fill="white"/>
<path fill-rule="evenodd" clip-rule="evenodd" d="M37 23.5137V25.0548L39.0548 24.7123V22.9999L37 23.5137Z" fill="white"/>
<path fill-rule="evenodd" clip-rule="evenodd" d="M40 23.3424V25.0548L42.0548 24.7123V22.9999L40 23.3424Z" fill="white"/>
<path fill-rule="evenodd" clip-rule="evenodd" d="M42 22.3424V24.0548L44.0548 23.7123V21.9999L42 22.3424Z" fill="white"/>
<path fill-rule="evenodd" clip-rule="evenodd" d="M45 22.3424V23.8835L47.0548 23.5411V21.9999L45 22.3424Z" fill="white"/>
<path fill-rule="evenodd" clip-rule="evenodd" d="M37 27.3424V28.8835L39.0548 28.5411V26.9999L37 27.3424Z" fill="white"/>
<path fill-rule="evenodd" clip-rule="evenodd" d="M40 26.5137V28.0548L42.0548 27.7123V25.9999L40 26.5137Z" fill="white"/>
<path fill-rule="evenodd" clip-rule="evenodd" d="M42 25.3424V27.0548L44.0548 26.7123V24.9999L42 25.3424Z" fill="white"/>
<path fill-rule="evenodd" clip-rule="evenodd" d="M45 25.3424V27.0548L47.0548 26.5411V24.9999L45 25.3424Z" fill="white"/>
<path fill-rule="evenodd" clip-rule="evenodd" d="M49 5.99994V7.71231L51.0548 8.39726V6.85612L49 5.99994Z" fill="white"/>
<path fill-rule="evenodd" clip-rule="evenodd" d="M52 7.99994V9.54107L54.0548 10.3973V8.68489L52 7.99994Z" fill="white"/>
<path fill-rule="evenodd" clip-rule="evenodd" d="M49 9.99994V11.7123L51.0548 12.5685V10.8561L49 9.99994Z" fill="white"/>
<path fill-rule="evenodd" clip-rule="evenodd" d="M52 10.9999V12.5411L54.0548 13.3973V11.8561L52 10.9999Z" fill="white"/>
<path fill-rule="evenodd" clip-rule="evenodd" d="M49 12.9999V14.7123L51.0548 15.5685V13.8561L49 12.9999Z" fill="white"/>
<path fill-rule="evenodd" clip-rule="evenodd" d="M52 13.9999V15.5411L54.0548 16.3973V14.8561L52 13.9999Z" fill="white"/>
<path fill-rule="evenodd" clip-rule="evenodd" d="M49 15.9999V17.7123L51.0548 18.5685V16.8561L49 15.9999Z" fill="white"/>
<path fill-rule="evenodd" clip-rule="evenodd" d="M52 16.9999V18.5411L54.0548 19.3973V17.8561L52 16.9999Z" fill="white"/>
<path fill-rule="evenodd" clip-rule="evenodd" d="M49 18.9999V20.5411L51.0548 21.3973V19.6849L49 18.9999Z" fill="white"/>
<path fill-rule="evenodd" clip-rule="evenodd" d="M52 19.9999V21.7123L54.0548 22.3973V20.8561L52 19.9999Z" fill="white"/>
<path fill-rule="evenodd" clip-rule="evenodd" d="M49 21.9999V23.5411L51.0548 24.3973V22.8561L49 21.9999Z" fill="white"/>
<path fill-rule="evenodd" clip-rule="evenodd" d="M52 22.9999V24.7123L54.0548 25.5685V23.8561L52 22.9999Z" fill="white"/>
<path fill-rule="evenodd" clip-rule="evenodd" d="M49 24.9999V26.5411L51.0548 27.3973V25.8561L49 24.9999Z" fill="white"/>
<path fill-rule="evenodd" clip-rule="evenodd" d="M52 25.9999V27.7123L54.0548 28.5685V26.8561L52 25.9999Z" fill="white"/>
<path d="M27 13.226V41.3089H37.103V10.9999L27 13.226Z" fill="#E73237"/>
<path fill-rule="evenodd" clip-rule="evenodd" d="M38 10.9999V41.1376H43.6508V13.226L38 10.9999Z" fill="#E73237"/>
<path fill-rule="evenodd" clip-rule="evenodd" d="M28 14.3424V15.7123L29.7124 15.3698V13.9999L28 14.3424Z" fill="white"/>
<path fill-rule="evenodd" clip-rule="evenodd" d="M30 14.3424V15.5411L31.7124 15.1986V13.9999L30 14.3424Z" fill="white"/>
<path fill-rule="evenodd" clip-rule="evenodd" d="M33 13.3424V14.7123L34.7124 14.3698V12.9999L33 13.3424Z" fill="white"/>
<path fill-rule="evenodd" clip-rule="evenodd" d="M35 13.3424V14.7123L36.7124 14.3698V12.9999L35 13.3424Z" fill="white"/>
<path fill-rule="evenodd" clip-rule="evenodd" d="M28 17.3424V18.7123L29.7124 18.3698V16.9999L28 17.3424Z" fill="white"/>
<path fill-rule="evenodd" clip-rule="evenodd" d="M30 16.3424V17.7123L31.7124 17.3698V15.9999L30 16.3424Z" fill="white"/>
<path fill-rule="evenodd" clip-rule="evenodd" d="M33 16.3424V17.5411L34.7124 17.3698V15.9999L33 16.3424Z" fill="white"/>
<path fill-rule="evenodd" clip-rule="evenodd" d="M35 15.3424V16.7123L36.7124 16.3698V14.9999L35 15.3424Z" fill="white"/>
<path fill-rule="evenodd" clip-rule="evenodd" d="M28 19.3424V20.5411L29.7124 20.3698V18.9999L28 19.3424Z" fill="white"/>
<path fill-rule="evenodd" clip-rule="evenodd" d="M30 19.3424V20.7123L31.7124 20.3698V18.9999L30 19.3424Z" fill="white"/>
<path fill-rule="evenodd" clip-rule="evenodd" d="M33 18.1712V19.5411L34.7124 19.1986V17.9999L33 18.1712Z" fill="white"/>
<path fill-rule="evenodd" clip-rule="evenodd" d="M35 18.3424V19.5411L36.7124 19.3698V17.9999L35 18.3424Z" fill="white"/>
<path fill-rule="evenodd" clip-rule="evenodd" d="M28 22.1712V23.5411L29.7124 23.1986V21.9999L28 22.1712Z" fill="white"/>
<path fill-rule="evenodd" clip-rule="evenodd" d="M30 21.3424V22.7123L31.7124 22.3698V20.9999L30 21.3424Z" fill="white"/>
<path fill-rule="evenodd" clip-rule="evenodd" d="M33 21.3424V22.7123L34.7124 22.3698V20.9999L33 21.3424Z" fill="white"/>
<path fill-rule="evenodd" clip-rule="evenodd" d="M35 21.1712V22.5411L36.7124 22.1986V20.9999L35 21.1712Z" fill="white"/>
<path fill-rule="evenodd" clip-rule="evenodd" d="M28 24.3424V25.7123L29.7124 25.3698V23.9999L28 24.3424Z" fill="white"/>
<path fill-rule="evenodd" clip-rule="evenodd" d="M30 24.3424V25.5411L31.7124 25.3698V23.9999L30 24.3424Z" fill="white"/>
<path fill-rule="evenodd" clip-rule="evenodd" d="M33 23.3424V24.7123L34.7124 24.3698V22.9999L33 23.3424Z" fill="white"/>
<path fill-rule="evenodd" clip-rule="evenodd" d="M35 23.3424V24.7123L36.7124 24.3698V22.9999L35 23.3424Z" fill="white"/>
<path fill-rule="evenodd" clip-rule="evenodd" d="M28 27.3424V28.7123L29.7124 28.3698V26.9999L28 27.3424Z" fill="white"/>
<path fill-rule="evenodd" clip-rule="evenodd" d="M30 27.1712V28.5411L31.7124 28.1986V26.9999L30 27.1712Z" fill="white"/>
<path fill-rule="evenodd" clip-rule="evenodd" d="M33 26.3424V27.7123L34.7124 27.3698V25.9999L33 26.3424Z" fill="white"/>
<path fill-rule="evenodd" clip-rule="evenodd" d="M35 25.3424V26.7123L36.7124 26.3698V24.9999L35 25.3424Z" fill="white"/>
<path fill-rule="evenodd" clip-rule="evenodd" d="M28 29.3424V30.5411L29.7124 30.3698V28.9999L28 29.3424Z" fill="white"/>
<path fill-rule="evenodd" clip-rule="evenodd" d="M30 29.3424V30.7123L31.7124 30.3698V28.9999L30 29.3424Z" fill="white"/>
<path fill-rule="evenodd" clip-rule="evenodd" d="M33 29.3424V30.5411L34.7124 30.1986V28.9999L33 29.3424Z" fill="white"/>
<path fill-rule="evenodd" clip-rule="evenodd" d="M35 28.3424V29.7123L36.7124 29.3698V27.9999L35 28.3424Z" fill="white"/>
<path fill-rule="evenodd" clip-rule="evenodd" d="M38 12.9999V14.1986L39.7124 14.8835V13.6849L38 12.9999Z" fill="white"/>
<path fill-rule="evenodd" clip-rule="evenodd" d="M41 13.9999V15.3698L42.5411 15.8835V14.6849L41 13.9999Z" fill="white"/>
<path fill-rule="evenodd" clip-rule="evenodd" d="M38 15.9999V17.3698L39.7124 18.0548V16.6849L38 15.9999Z" fill="white"/>
<path fill-rule="evenodd" clip-rule="evenodd" d="M41 16.9999V18.1986L42.5411 18.8835V17.5137L41 16.9999Z" fill="white"/>
<path fill-rule="evenodd" clip-rule="evenodd" d="M38 17.9999V19.3698L39.7124 20.0548V18.6849L38 17.9999Z" fill="white"/>
<path fill-rule="evenodd" clip-rule="evenodd" d="M41 18.9999V20.3698L42.5411 21.0548V19.6849L41 18.9999Z" fill="white"/>
<path fill-rule="evenodd" clip-rule="evenodd" d="M38 20.9999V22.1986L39.7124 22.8835V21.6849L38 20.9999Z" fill="white"/>
<path fill-rule="evenodd" clip-rule="evenodd" d="M41 21.9999V23.3698L42.5411 24.0548V22.6849L41 21.9999Z" fill="white"/>
<path fill-rule="evenodd" clip-rule="evenodd" d="M38 22.9999V24.3698L39.7124 25.0548V23.6849L38 22.9999Z" fill="white"/>
<path fill-rule="evenodd" clip-rule="evenodd" d="M41 23.9999V25.1986L42.5411 25.8835V24.6849L41 23.9999Z" fill="white"/>
<path fill-rule="evenodd" clip-rule="evenodd" d="M38 25.9999V27.3698L39.7124 28.0548V26.6849L38 25.9999Z" fill="white"/>
<path fill-rule="evenodd" clip-rule="evenodd" d="M41 26.9999V28.3698L42.5411 29.0548V27.6849L41 26.9999Z" fill="white"/>
<path fill-rule="evenodd" clip-rule="evenodd" d="M38 27.9999V29.3698L39.7124 30.0548V28.6849L38 27.9999Z" fill="white"/>
<path fill-rule="evenodd" clip-rule="evenodd" d="M41 28.9999V30.3698L42.5411 31.0548V29.6849L41 28.9999Z" fill="white"/>
<path d="M21.1002 22.4992L17 36.9999L17.6591 37.1863L21.7594 22.6855L21.1002 22.4992Z" fill="#E73237"/>
<path d="M22.1002 23.4992L18 37.9999L18.6591 38.1863L22.7594 23.6856L22.1002 23.4992Z" fill="#E73237"/>
<path d="M26.699 37.9999H13V40.226H26.699V37.9999Z" fill="#E73237"/>
<path fill-rule="evenodd" clip-rule="evenodd" d="M25.4796 35.9999H20V38.226H26.8495L25.4796 35.9999Z" fill="#E73237"/>
<path d="M27.3064 1.2664L18 35.9999L18.9924 36.2658L28.2988 1.5323L27.3064 1.2664Z" fill="#E73237"/>
<path d="M20.6234 36.9999H16V38.7123H20.6234V36.9999Z" fill="#E73237"/>
<path d="M13.3973 36.9999H11V40.0822H13.3973V36.9999Z" fill="#E73237"/>
<path d="M19.3973 34.9999H17V38.0822H19.3973V34.9999Z" fill="#E73237"/>
<path d="M16.3973 36.9999H14V40.0822H16.3973V36.9999Z" fill="#E73237"/>
<path fill-rule="evenodd" clip-rule="evenodd" d="M13.3699 38.9999C12.6849 38.9999 12 39.5136 12 40.3698C12 41.0548 12.5137 41.7397 13.3699 41.7397C14.0548 41.7397 14.7398 41.226 14.7398 40.3698C14.5686 39.5136 14.0548 38.9999 13.3699 38.9999Z" fill="#E73237"/>
<path fill-rule="evenodd" clip-rule="evenodd" d="M16.3699 38.9999C15.6849 38.9999 15 39.5136 15 40.3698C15 41.0548 15.5137 41.7397 16.3699 41.7397C17.0548 41.7397 17.7398 41.226 17.7398 40.3698C17.7398 39.5136 17.2261 38.9999 16.3699 38.9999Z" fill="#E73237"/>
<path fill-rule="evenodd" clip-rule="evenodd" d="M19.3699 38.9999C18.6849 38.9999 18 39.5136 18 40.3698C18 41.0548 18.5137 41.7397 19.3699 41.7397C20.0548 41.7397 20.7398 41.226 20.7398 40.3698C20.7398 39.5136 20.2261 38.9999 19.3699 38.9999Z" fill="#E73237"/>
<path fill-rule="evenodd" clip-rule="evenodd" d="M22.3699 38.9999C21.6849 38.9999 21 39.5136 21 40.3698C21 41.0548 21.5137 41.7397 22.3699 41.7397C23.0548 41.7397 23.7398 41.226 23.7398 40.3698C23.5686 39.5136 23.0548 38.9999 22.3699 38.9999Z" fill="#E73237"/>
<path fill-rule="evenodd" clip-rule="evenodd" d="M25.3699 38.9999C24.6849 38.9999 24 39.5136 24 40.3698C24 41.0548 24.5137 41.7397 25.3699 41.7397C26.0548 41.7397 26.7398 41.226 26.7398 40.3698C26.7398 39.5136 26.0548 38.9999 25.3699 38.9999Z" fill="#E73237"/>
<path d="M27.1331 0.503798L27 0.999939L28.8192 1.48798L28.9523 0.991843L27.1331 0.503798Z" fill="#E73237"/>
<path d="M28.6663 1.42748L27 9.99988L27.1681 10.0325L28.8344 1.46015L28.6663 1.42748Z" fill="#E73237"/>
<path fill-rule="evenodd" clip-rule="evenodd" d="M29.1712 1.99988L29 2.17111L30.8836 10.733H31.0548L29.1712 1.99988Z" fill="#E73237"/>
<path d="M31.1097 9.99988H27V10.5136H31.1097V9.99988Z" fill="#E73237"/>
<path d="M8.53443 29.9999V32.5684H4.08226V41.4728H1V29.9999H8.53443Z" fill="black"/>
<path d="M18.3906 33.7671C18.3906 34.9658 18.0481 35.9932 17.192 36.6781C16.507 37.3631 15.3083 37.7055 13.9385 37.7055H13.0823V41.4728H10V29.9999H13.9385C15.3083 29.9999 16.507 30.3423 17.192 31.0273C18.0481 31.7122 18.3906 32.7397 18.3906 33.7671ZM13.2535 35.3082H13.7672C14.2809 35.3082 14.6234 35.137 14.7946 34.9658C15.1371 34.6233 15.1371 34.2808 15.1371 33.9383C15.1371 33.0821 14.6234 32.7397 13.9385 32.7397H13.0823V35.3082H13.2535Z" fill="black"/>
<path d="M30.9592 35.8219C30.9592 37.7055 30.4455 39.2467 29.5893 40.2741C28.5618 41.3015 27.192 41.8152 25.4796 41.8152C23.7672 41.8152 22.3973 41.3015 21.3699 40.2741C20.3425 39.2467 20 37.8768 20 35.8219C20 33.9383 20.5137 32.3972 21.3699 31.541C22.3973 30.5136 23.7672 29.9999 25.4796 29.9999C27.3632 29.9999 28.7331 30.5136 29.5893 31.541C30.6167 32.5684 30.9592 33.9383 30.9592 35.8219ZM23.2535 35.8219C23.2535 38.048 23.9385 39.0754 25.4796 39.0754C26.3358 39.0754 26.8495 38.733 27.192 38.2193C27.5344 37.7055 27.7057 36.8494 27.7057 35.6507C27.7057 34.452 27.5344 33.5959 27.192 33.0821C26.8495 32.5684 26.1645 32.226 25.4796 32.226C23.9385 32.5684 23.2535 33.5959 23.2535 35.8219Z" fill="black"/>
<path d="M38.4796 32.3972C37.7946 32.3972 37.1097 32.7397 36.7672 33.2534C36.4247 33.9383 36.0823 34.6233 36.0823 35.8219C36.0823 38.048 36.9385 39.0754 38.6508 39.0754C39.1645 39.0754 39.6782 39.0754 40.192 38.9042C40.7057 38.733 41.2194 38.5617 41.5619 38.3905V40.959C40.5344 41.3015 39.507 41.644 38.3084 41.644C36.596 41.644 35.2261 41.1303 34.3699 40.1029C33.5137 39.0754 33 37.7055 33 35.8219C33 34.6233 33.1712 33.5959 33.685 32.7397C34.1987 31.8835 34.7124 31.1985 35.5686 30.6848C36.4247 30.1711 37.4522 29.9999 38.4796 29.9999C39.6782 29.9999 40.8769 30.3423 42.0756 30.8561L41.0481 33.2534C40.7057 33.0821 40.192 32.9109 39.8495 32.7397C39.507 32.3972 38.9933 32.3972 38.4796 32.3972Z" fill="black"/>
<path d="M53.9317 41.4728H50.507L47.0823 35.6507V41.4728H44V29.9999H47.0823V35.6507L50.3358 29.9999H53.7605L50.3358 35.4795L53.9317 41.4728Z" fill="black"/>
<path d="M63.3906 33.7671C63.3906 34.9658 63.0481 35.9932 62.1919 36.6781C61.507 37.3631 60.3083 37.7055 58.9385 37.7055H58.0823V41.4728H55V29.9999H58.9385C60.3083 29.9999 61.507 30.3423 62.1919 31.0273C63.0481 31.7122 63.3906 32.7397 63.3906 33.7671ZM58.0823 35.3082H58.596C59.1097 35.3082 59.4522 35.137 59.6234 34.9658C59.9659 34.6233 59.9659 34.2808 59.9659 33.9383C59.9659 33.0821 59.4522 32.7397 58.7672 32.7397H57.911V35.3082H58.0823Z" fill="black"/>
<path d="M72.2194 41.4728L71.7057 39.2467H67.9385L67.4247 41.4728H64L67.7672 29.9999H71.8769L75.6441 41.4728H72.2194ZM71.0207 36.8494L70.507 34.9658C70.3358 34.6233 70.3358 33.9383 70.1645 33.4246C69.9933 32.7397 69.8221 32.226 69.8221 32.0547C69.8221 32.3972 69.6508 32.7397 69.4796 33.4246C69.3083 34.1096 68.9659 35.3082 68.6234 37.0206H71.0207V36.8494Z" fill="black"/>
<path d="M86.7605 41.4728H83.6782V36.8494H80.0823V41.4728H77V29.9999H80.0823V34.2808H83.6782V29.9999H86.7605V41.4728Z" fill="black"/>
<path d="M3.76722 49.3082L3.42474 48.1096H1.54113L1.19866 49.3082H0L1.88361 43.9999H3.2535L5.13711 49.3082H3.76722ZM3.2535 47.2534C2.91103 46.0547 2.73979 45.541 2.73979 45.3698C2.73979 45.1985 2.73979 45.0273 2.56856 45.0273C2.56856 45.3698 2.22608 46.0547 1.88361 47.2534H3.2535Z" fill="#E73237"/>
<path d="M9.59597 45.541C9.59597 46.0547 9.42474 46.5684 9.08226 46.9109C8.73979 47.2534 8.22608 47.4246 7.54113 47.4246H7.02742V49.137H6V43.9999H7.71237C8.39732 43.9999 8.91103 44.1711 9.08226 44.3424C9.42474 44.6848 9.59597 45.0273 9.59597 45.541ZM7.19866 46.3972H7.54113C7.88361 46.3972 8.05484 46.3972 8.22608 46.226C8.39732 46.0547 8.39732 45.8835 8.39732 45.7122C8.39732 45.3698 8.39732 45.1985 8.22608 45.1985C8.05484 45.0273 7.88361 45.0273 7.54113 45.0273H7.02742V46.3972H7.19866Z" fill="#E73237"/>
<path d="M13.0823 49.137H10V43.9999H13.0823V44.8561H11.1987V46.0547H12.911V46.9109H11.1987V48.2808H13.0823V49.137Z" fill="#E73237"/>
<path d="M18.2809 49.137H17.2535V46.9109H15.1987V49.137H14V43.9999H15.1987V46.0547H17.2535V43.9999H18.2809V49.137Z" fill="#E73237"/>
<path d="M19 48.2808H19.5137C19.8562 47.5959 20.1987 46.9109 20.3699 46.226C20.5411 45.541 20.7124 44.8561 20.8836 43.9999H23.9659V48.2808H24.6508V50.6781H23.6234V49.137H20.3699V50.6781H19.3425V48.2808H19ZM21.5686 44.8561C21.5686 45.3698 21.3973 46.0547 21.2261 46.5684C21.0548 47.2534 20.8836 47.7671 20.5411 48.2808H22.596V44.8561H21.5686Z" fill="#E73237"/>
<path d="M28.7672 49.3082L28.4247 48.1096H26.5411L26.1987 49.3082H25L26.8836 43.9999H28.2535L30.1371 49.3082H28.7672ZM28.2535 47.2534C27.911 46.0547 27.7398 45.541 27.7398 45.3698C27.7398 45.1985 27.7398 45.0273 27.5686 45.0273C27.5686 45.3698 27.2261 46.0547 26.8836 47.2534H28.2535Z" fill="#E73237"/>
<path d="M35.2261 45.1985C34.8836 45.1985 34.5411 45.3698 34.1987 45.7122C34.0274 45.8835 34.0274 46.3972 34.0274 46.9109C34.0274 48.1096 34.5411 48.6233 35.3973 48.6233C35.7398 48.6233 36.2535 48.452 36.7672 48.2808V49.137C36.2535 49.3082 35.911 49.4795 35.3973 49.4795C34.7124 49.4795 34.0274 49.3082 33.6849 48.7945C33.3425 48.2808 33 47.5959 33 46.7397C33 46.226 33.1712 45.7122 33.3425 45.3698C33.5137 45.0273 33.8562 44.6848 34.1987 44.3424C34.5411 44.1711 35.0548 43.9999 35.5686 43.9999C36.0823 43.9999 36.596 44.1711 37.1097 44.3424L36.7672 45.1985C36.596 45.0273 36.4247 45.0273 36.2535 45.0273C35.7398 45.1985 35.3973 45.1985 35.2261 45.1985Z" fill="#E73237"/>
<path d="M41.1097 49.137H39.911V44.8561H38.0274V49.137H37V43.9999H41.1097V49.137Z" fill="#E73237"/>
<path d="M45.911 49.137H43V43.9999H45.911V44.8561H44.0274V46.0547H45.7398V46.9109H44.0274V48.2808H45.911V49.137Z" fill="#E73237"/>
<path d="M51.1097 48.2808H51.7946V50.6781H50.7672V49.137H47V43.9999H48.0274V48.2808H49.911V43.9999H51.1097V48.2808Z" fill="#E73237"/>
<path d="M54.5686 49.137H53.3699V44.8561H52V43.9999H55.9384V44.8561H54.5686V49.137Z" fill="#E73237"/>
<path d="M59.911 49.137H57V43.9999H59.911V44.8561H58.0274V46.0547H59.911V46.9109H58.0274V48.2808H59.911V49.137Z" fill="#E73237"/>
<path d="M64.9659 49.137H63.596L62.3973 47.2534L61.1987 49.137H60L61.7124 46.5684L60.1712 43.9999H61.3699L62.3973 45.8835L63.596 43.9999H64.7946L63.0823 46.5684L64.9659 49.137Z" fill="#E73237"/>
<path d="M70.4522 49.137H69.2535V46.9109H67.1987V49.137H66V43.9999H67.1987V46.0547H69.2535V43.9999H70.4522V49.137Z" fill="#E73237"/>
<path d="M71 43.9999H72.0274V46.5684V47.2534V48.1096L74.4247 44.1711H75.7946V49.137H74.7672V46.5684C74.7672 46.226 74.7672 45.7122 74.7672 45.0273L72.3699 49.137H71V43.9999Z" fill="#E73237"/>
<path d="M82.1097 49.137H80.911L79.0274 46.5684V49.137H78V43.9999H79.0274V46.5684L80.911 43.9999H82.1097L80.2261 46.3972L82.1097 49.137Z" fill="#E73237"/>
<path d="M82 43.9999H83.0274V46.5684V47.2534V48.1096L85.4247 44.1711H86.7946V49.137H85.7672V46.5684C85.7672 46.226 85.7672 45.7122 85.7672 45.0273L83.3699 49.137H82V43.9999Z" fill="#E73237"/>
<path d="M86.4473 40.9999H1V42.0273H86.4473V40.9999Z" fill="#E73237"/>
<path fill-rule="evenodd" clip-rule="evenodd" d="M36 6.73967V41.3295H48.3291V3.99988L36 6.73967Z" fill="#E73237"/>
<path fill-rule="evenodd" clip-rule="evenodd" d="M48 3.99988V41.3295H54.8495V6.73967L48 3.99988Z" fill="#E73237"/>
<path fill-rule="evenodd" clip-rule="evenodd" d="M37 8.51359V10.0547L39.0548 9.71225V7.99988L37 8.51359Z" fill="white"/>
<path fill-rule="evenodd" clip-rule="evenodd" d="M40 7.34235V9.05472L42.0548 8.71225V6.99988L40 7.34235Z" fill="white"/>
<path fill-rule="evenodd" clip-rule="evenodd" d="M42 7.34235V9.05472L44.0548 8.54101V6.99988L42 7.34235Z" fill="white"/>
<path fill-rule="evenodd" clip-rule="evenodd" d="M45 6.51359V8.05472L47.0548 7.71225V5.99988L45 6.51359Z" fill="white"/>
<path fill-rule="evenodd" clip-rule="evenodd" d="M37 11.5136V13.0547L39.0548 12.7122V10.9999L37 11.5136Z" fill="white"/>
<path fill-rule="evenodd" clip-rule="evenodd" d="M40 10.5136V12.0547L42.0548 11.7122V9.99988L40 10.5136Z" fill="white"/>
<path fill-rule="evenodd" clip-rule="evenodd" d="M42 10.3424V12.0547L44.0548 11.7122V9.99988L42 10.3424Z" fill="white"/>
<path fill-rule="evenodd" clip-rule="evenodd" d="M45 9.34235V11.0547L47.0548 10.541V8.99988L45 9.34235Z" fill="white"/>
<path fill-rule="evenodd" clip-rule="evenodd" d="M37 14.3424V16.0547L39.0548 15.541V13.9999L37 14.3424Z" fill="white"/>
<path fill-rule="evenodd" clip-rule="evenodd" d="M40 14.3423V15.8835L42.0548 15.541V13.9999L40 14.3423Z" fill="white"/>
<path fill-rule="evenodd" clip-rule="evenodd" d="M42 13.5136V15.0547L44.0548 14.7122V12.9999L42 13.5136Z" fill="white"/>
<path fill-rule="evenodd" clip-rule="evenodd" d="M45 12.3424V14.0547L47.0548 13.541V11.9999L45 12.3424Z" fill="white"/>
<path fill-rule="evenodd" clip-rule="evenodd" d="M37 17.3423V19.0547L39.0548 18.7122V16.9999L37 17.3423Z" fill="white"/>
<path fill-rule="evenodd" clip-rule="evenodd" d="M40 17.3424V19.0547L42.0548 18.541V16.9999L40 17.3424Z" fill="white"/>
<path fill-rule="evenodd" clip-rule="evenodd" d="M42 16.3423V17.8835L44.0548 17.541V15.9999L42 16.3423Z" fill="white"/>
<path fill-rule="evenodd" clip-rule="evenodd" d="M45 16.3423V18.0547L47.0548 17.7122V15.9999L45 16.3423Z" fill="white"/>
<path fill-rule="evenodd" clip-rule="evenodd" d="M37 20.3424V22.0547L39.0548 21.7122V19.9999L37 20.3424Z" fill="white"/>
<path fill-rule="evenodd" clip-rule="evenodd" d="M40 20.3423V22.0547L42.0548 21.7122V19.9999L40 20.3423Z" fill="white"/>
<path fill-rule="evenodd" clip-rule="evenodd" d="M42 19.3424V21.0547L44.0548 20.541V18.9999L42 19.3424Z" fill="white"/>
<path fill-rule="evenodd" clip-rule="evenodd" d="M45 19.5136V21.0547L47.0548 20.7122V18.9999L45 19.5136Z" fill="white"/>
<path fill-rule="evenodd" clip-rule="evenodd" d="M37 23.5136V25.0547L39.0548 24.7122V22.9999L37 23.5136Z" fill="white"/>
<path fill-rule="evenodd" clip-rule="evenodd" d="M40 23.3424V25.0547L42.0548 24.7122V22.9999L40 23.3424Z" fill="white"/>
<path fill-rule="evenodd" clip-rule="evenodd" d="M42 22.3423V24.0547L44.0548 23.7122V21.9999L42 22.3423Z" fill="white"/>
<path fill-rule="evenodd" clip-rule="evenodd" d="M45 22.3424V23.8835L47.0548 23.541V21.9999L45 22.3424Z" fill="white"/>
<path fill-rule="evenodd" clip-rule="evenodd" d="M37 27.3423V28.8835L39.0548 28.541V26.9999L37 27.3423Z" fill="white"/>
<path fill-rule="evenodd" clip-rule="evenodd" d="M40 26.5136V28.0547L42.0548 27.7122V25.9999L40 26.5136Z" fill="white"/>
<path fill-rule="evenodd" clip-rule="evenodd" d="M42 25.3424V27.0547L44.0548 26.7122V24.9999L42 25.3424Z" fill="white"/>
<path fill-rule="evenodd" clip-rule="evenodd" d="M45 25.3423V27.0547L47.0548 26.541V24.9999L45 25.3423Z" fill="white"/>
<path fill-rule="evenodd" clip-rule="evenodd" d="M49 5.99988V7.71225L51.0548 8.3972V6.85606L49 5.99988Z" fill="white"/>
<path fill-rule="evenodd" clip-rule="evenodd" d="M52 7.99988V9.54101L54.0548 10.3972V8.68483L52 7.99988Z" fill="white"/>
<path fill-rule="evenodd" clip-rule="evenodd" d="M49 9.99988V11.7122L51.0548 12.5684V10.8561L49 9.99988Z" fill="white"/>
<path fill-rule="evenodd" clip-rule="evenodd" d="M52 10.9999V12.541L54.0548 13.3972V11.8561L52 10.9999Z" fill="white"/>
<path fill-rule="evenodd" clip-rule="evenodd" d="M49 12.9999V14.7122L51.0548 15.5684V13.8561L49 12.9999Z" fill="white"/>
<path fill-rule="evenodd" clip-rule="evenodd" d="M52 13.9999V15.541L54.0548 16.3972V14.8561L52 13.9999Z" fill="white"/>
<path fill-rule="evenodd" clip-rule="evenodd" d="M49 15.9999V17.7122L51.0548 18.5684V16.8561L49 15.9999Z" fill="white"/>
<path fill-rule="evenodd" clip-rule="evenodd" d="M52 16.9999V18.541L54.0548 19.3972V17.8561L52 16.9999Z" fill="white"/>
<path fill-rule="evenodd" clip-rule="evenodd" d="M49 18.9999V20.541L51.0548 21.3972V19.6848L49 18.9999Z" fill="white"/>
<path fill-rule="evenodd" clip-rule="evenodd" d="M52 19.9999V21.7122L54.0548 22.3972V20.8561L52 19.9999Z" fill="white"/>
<path fill-rule="evenodd" clip-rule="evenodd" d="M49 21.9999V23.541L51.0548 24.3972V22.8561L49 21.9999Z" fill="white"/>
<path fill-rule="evenodd" clip-rule="evenodd" d="M52 22.9999V24.7122L54.0548 25.5684V23.8561L52 22.9999Z" fill="white"/>
<path fill-rule="evenodd" clip-rule="evenodd" d="M49 24.9999V26.541L51.0548 27.3972V25.8561L49 24.9999Z" fill="white"/>
<path fill-rule="evenodd" clip-rule="evenodd" d="M52 25.9999V27.7122L54.0548 28.5684V26.8561L52 25.9999Z" fill="white"/>
<path d="M27 13.226V41.3088H37.103V10.9999L27 13.226Z" fill="#E73237"/>
<path fill-rule="evenodd" clip-rule="evenodd" d="M38 10.9999V41.1376H43.6508V13.226L38 10.9999Z" fill="#E73237"/>
<path fill-rule="evenodd" clip-rule="evenodd" d="M28 14.3424V15.7122L29.7124 15.3698V13.9999L28 14.3424Z" fill="white"/>
<path fill-rule="evenodd" clip-rule="evenodd" d="M30 14.3423V15.541L31.7124 15.1985V13.9999L30 14.3423Z" fill="white"/>
<path fill-rule="evenodd" clip-rule="evenodd" d="M33 13.3424V14.7122L34.7124 14.3698V12.9999L33 13.3424Z" fill="white"/>
<path fill-rule="evenodd" clip-rule="evenodd" d="M35 13.3423V14.7122L36.7124 14.3698V12.9999L35 13.3423Z" fill="white"/>
<path fill-rule="evenodd" clip-rule="evenodd" d="M28 17.3424V18.7122L29.7124 18.3698V16.9999L28 17.3424Z" fill="white"/>
<path fill-rule="evenodd" clip-rule="evenodd" d="M30 16.3423V17.7122L31.7124 17.3698V15.9999L30 16.3423Z" fill="white"/>
<path fill-rule="evenodd" clip-rule="evenodd" d="M33 16.3424V17.541L34.7124 17.3698V15.9999L33 16.3424Z" fill="white"/>
<path fill-rule="evenodd" clip-rule="evenodd" d="M35 15.3423V16.7122L36.7124 16.3698V14.9999L35 15.3423Z" fill="white"/>
<path fill-rule="evenodd" clip-rule="evenodd" d="M28 19.3424V20.541L29.7124 20.3698V18.9999L28 19.3424Z" fill="white"/>
<path fill-rule="evenodd" clip-rule="evenodd" d="M30 19.3423V20.7122L31.7124 20.3698V18.9999L30 19.3423Z" fill="white"/>
<path fill-rule="evenodd" clip-rule="evenodd" d="M33 18.1711V19.541L34.7124 19.1985V17.9999L33 18.1711Z" fill="white"/>
<path fill-rule="evenodd" clip-rule="evenodd" d="M35 18.3423V19.541L36.7124 19.3698V17.9999L35 18.3423Z" fill="white"/>
<path fill-rule="evenodd" clip-rule="evenodd" d="M28 22.1711V23.541L29.7124 23.1985V21.9999L28 22.1711Z" fill="white"/>
<path fill-rule="evenodd" clip-rule="evenodd" d="M30 21.3423V22.7122L31.7124 22.3698V20.9999L30 21.3423Z" fill="white"/>
<path fill-rule="evenodd" clip-rule="evenodd" d="M33 21.3424V22.7122L34.7124 22.3698V20.9999L33 21.3424Z" fill="white"/>
<path fill-rule="evenodd" clip-rule="evenodd" d="M35 21.1711V22.541L36.7124 22.1985V20.9999L35 21.1711Z" fill="white"/>
<path fill-rule="evenodd" clip-rule="evenodd" d="M28 24.3424V25.7122L29.7124 25.3698V23.9999L28 24.3424Z" fill="white"/>
<path fill-rule="evenodd" clip-rule="evenodd" d="M30 24.3423V25.541L31.7124 25.3698V23.9999L30 24.3423Z" fill="white"/>
<path fill-rule="evenodd" clip-rule="evenodd" d="M33 23.3424V24.7122L34.7124 24.3698V22.9999L33 23.3424Z" fill="white"/>
<path fill-rule="evenodd" clip-rule="evenodd" d="M35 23.3424V24.7122L36.7124 24.3698V22.9999L35 23.3424Z" fill="white"/>
<path fill-rule="evenodd" clip-rule="evenodd" d="M28 27.3424V28.7122L29.7124 28.3698V26.9999L28 27.3424Z" fill="white"/>
<path fill-rule="evenodd" clip-rule="evenodd" d="M30 27.1711V28.541L31.7124 28.1985V26.9999L30 27.1711Z" fill="white"/>
<path fill-rule="evenodd" clip-rule="evenodd" d="M33 26.3424V27.7122L34.7124 27.3698V25.9999L33 26.3424Z" fill="white"/>
<path fill-rule="evenodd" clip-rule="evenodd" d="M35 25.3424V26.7122L36.7124 26.3698V24.9999L35 25.3424Z" fill="white"/>
<path fill-rule="evenodd" clip-rule="evenodd" d="M28 29.3424V30.541L29.7124 30.3698V28.9999L28 29.3424Z" fill="white"/>
<path fill-rule="evenodd" clip-rule="evenodd" d="M30 29.3424V30.7122L31.7124 30.3698V28.9999L30 29.3424Z" fill="white"/>
<path fill-rule="evenodd" clip-rule="evenodd" d="M33 29.3424V30.541L34.7124 30.1985V28.9999L33 29.3424Z" fill="white"/>
<path fill-rule="evenodd" clip-rule="evenodd" d="M35 28.3424V29.7122L36.7124 29.3698V27.9999L35 28.3424Z" fill="white"/>
<path fill-rule="evenodd" clip-rule="evenodd" d="M38 12.9999V14.1985L39.7124 14.8835V13.6848L38 12.9999Z" fill="white"/>
<path fill-rule="evenodd" clip-rule="evenodd" d="M41 13.9999V15.3698L42.5411 15.8835V14.6848L41 13.9999Z" fill="white"/>
<path fill-rule="evenodd" clip-rule="evenodd" d="M38 15.9999V17.3698L39.7124 18.0547V16.6848L38 15.9999Z" fill="white"/>
<path fill-rule="evenodd" clip-rule="evenodd" d="M41 16.9999V18.1985L42.5411 18.8835V17.5136L41 16.9999Z" fill="white"/>
<path fill-rule="evenodd" clip-rule="evenodd" d="M38 17.9999V19.3698L39.7124 20.0547V18.6848L38 17.9999Z" fill="white"/>
<path fill-rule="evenodd" clip-rule="evenodd" d="M41 18.9999V20.3698L42.5411 21.0547V19.6848L41 18.9999Z" fill="white"/>
<path fill-rule="evenodd" clip-rule="evenodd" d="M38 20.9999V22.1985L39.7124 22.8835V21.6848L38 20.9999Z" fill="white"/>
<path fill-rule="evenodd" clip-rule="evenodd" d="M41 21.9999V23.3698L42.5411 24.0547V22.6848L41 21.9999Z" fill="white"/>
<path fill-rule="evenodd" clip-rule="evenodd" d="M38 22.9999V24.3698L39.7124 25.0547V23.6848L38 22.9999Z" fill="white"/>
<path fill-rule="evenodd" clip-rule="evenodd" d="M41 23.9999V25.1985L42.5411 25.8835V24.6848L41 23.9999Z" fill="white"/>
<path fill-rule="evenodd" clip-rule="evenodd" d="M38 25.9999V27.3698L39.7124 28.0547V26.6848L38 25.9999Z" fill="white"/>
<path fill-rule="evenodd" clip-rule="evenodd" d="M41 26.9999V28.3698L42.5411 29.0547V27.6848L41 26.9999Z" fill="white"/>
<path fill-rule="evenodd" clip-rule="evenodd" d="M38 27.9999V29.3698L39.7124 30.0547V28.6848L38 27.9999Z" fill="white"/>
<path fill-rule="evenodd" clip-rule="evenodd" d="M41 28.9999V30.3698L42.5411 31.0547V29.6848L41 28.9999Z" fill="white"/>
<path d="M21.1002 22.4991L17 36.9999L17.6591 37.1863L21.7594 22.6855L21.1002 22.4991Z" fill="#E73237"/>
<path d="M22.1002 23.4991L18 37.9999L18.6591 38.1863L22.7594 23.6855L22.1002 23.4991Z" fill="#E73237"/>
<path d="M26.699 37.9999H13V40.226H26.699V37.9999Z" fill="#E73237"/>
<path fill-rule="evenodd" clip-rule="evenodd" d="M25.4796 35.9999H20V38.226H26.8495L25.4796 35.9999Z" fill="#E73237"/>
<path d="M27.3064 1.26634L18 35.9999L18.9924 36.2658L28.2988 1.53223L27.3064 1.26634Z" fill="#E73237"/>
<path d="M20.6234 36.9999H16V38.7122H20.6234V36.9999Z" fill="#E73237"/>
<path d="M13.3973 36.9999H11V40.0821H13.3973V36.9999Z" fill="#E73237"/>
<path d="M19.3973 34.9999H17V38.0821H19.3973V34.9999Z" fill="#E73237"/>
<path d="M16.3973 36.9999H14V40.0821H16.3973V36.9999Z" fill="#E73237"/>
<path fill-rule="evenodd" clip-rule="evenodd" d="M13.3699 38.9999C12.6849 38.9999 12 39.5136 12 40.3698C12 41.0547 12.5137 41.7397 13.3699 41.7397C14.0548 41.7397 14.7398 41.226 14.7398 40.3698C14.5686 39.5136 14.0548 38.9999 13.3699 38.9999Z" fill="#E73237"/>
<path fill-rule="evenodd" clip-rule="evenodd" d="M16.3699 38.9999C15.6849 38.9999 15 39.5136 15 40.3698C15 41.0547 15.5137 41.7397 16.3699 41.7397C17.0548 41.7397 17.7398 41.226 17.7398 40.3698C17.7398 39.5136 17.2261 38.9999 16.3699 38.9999Z" fill="#E73237"/>
<path fill-rule="evenodd" clip-rule="evenodd" d="M19.3699 38.9999C18.6849 38.9999 18 39.5136 18 40.3698C18 41.0547 18.5137 41.7397 19.3699 41.7397C20.0548 41.7397 20.7398 41.226 20.7398 40.3698C20.7398 39.5136 20.2261 38.9999 19.3699 38.9999Z" fill="#E73237"/>
<path fill-rule="evenodd" clip-rule="evenodd" d="M22.3699 38.9999C21.6849 38.9999 21 39.5136 21 40.3698C21 41.0547 21.5137 41.7397 22.3699 41.7397C23.0548 41.7397 23.7398 41.226 23.7398 40.3698C23.5686 39.5136 23.0548 38.9999 22.3699 38.9999Z" fill="#E73237"/>
<path fill-rule="evenodd" clip-rule="evenodd" d="M25.3699 38.9999C24.6849 38.9999 24 39.5136 24 40.3698C24 41.0547 24.5137 41.7397 25.3699 41.7397C26.0548 41.7397 26.7398 41.226 26.7398 40.3698C26.7398 39.5136 26.0548 38.9999 25.3699 38.9999Z" fill="#E73237"/>
<path d="M27.1331 0.503737L27 0.999878L28.8192 1.48792L28.9523 0.991782L27.1331 0.503737Z" fill="#E73237"/>
<path d="M28.6663 1.42748L27 9.99988L27.1681 10.0325L28.8344 1.46015L28.6663 1.42748Z" fill="#E73237"/>
<path fill-rule="evenodd" clip-rule="evenodd" d="M29.1712 1.99988L29 2.17111L30.8836 10.733H31.0548L29.1712 1.99988Z" fill="#E73237"/>
<path d="M31.1097 9.99988H27V10.5136H31.1097V9.99988Z" fill="#E73237"/>
<path d="M8.53443 29.9999V32.5684H4.08226V41.4728H1V29.9999H8.53443Z" fill="#2D2828"/>
<path d="M18.3906 33.7671C18.3906 34.9658 18.0481 35.9932 17.192 36.6781C16.507 37.3631 15.3083 37.7055 13.9385 37.7055H13.0823V41.4728H10V29.9999H13.9385C15.3083 29.9999 16.507 30.3423 17.192 31.0273C18.0481 31.7122 18.3906 32.7397 18.3906 33.7671ZM13.2535 35.3082H13.7672C14.2809 35.3082 14.6234 35.137 14.7946 34.9658C15.1371 34.6233 15.1371 34.2808 15.1371 33.9383C15.1371 33.0821 14.6234 32.7397 13.9385 32.7397H13.0823V35.3082H13.2535Z" fill="#2D2828"/>
<path d="M30.9592 35.8219C30.9592 37.7055 30.4455 39.2467 29.5893 40.2741C28.5618 41.3015 27.192 41.8152 25.4796 41.8152C23.7672 41.8152 22.3973 41.3015 21.3699 40.2741C20.3425 39.2467 20 37.8768 20 35.8219C20 33.9383 20.5137 32.3972 21.3699 31.541C22.3973 30.5136 23.7672 29.9999 25.4796 29.9999C27.3632 29.9999 28.7331 30.5136 29.5893 31.541C30.6167 32.5684 30.9592 33.9383 30.9592 35.8219ZM23.2535 35.8219C23.2535 38.048 23.9385 39.0754 25.4796 39.0754C26.3358 39.0754 26.8495 38.733 27.192 38.2193C27.5344 37.7055 27.7057 36.8494 27.7057 35.6507C27.7057 34.452 27.5344 33.5959 27.192 33.0821C26.8495 32.5684 26.1645 32.226 25.4796 32.226C23.9385 32.5684 23.2535 33.5959 23.2535 35.8219Z" fill="#2D2828"/>
<path d="M38.4796 32.3972C37.7946 32.3972 37.1097 32.7397 36.7672 33.2534C36.4247 33.9383 36.0823 34.6233 36.0823 35.8219C36.0823 38.048 36.9385 39.0754 38.6508 39.0754C39.1645 39.0754 39.6782 39.0754 40.192 38.9042C40.7057 38.733 41.2194 38.5617 41.5619 38.3905V40.959C40.5344 41.3015 39.507 41.644 38.3084 41.644C36.596 41.644 35.2261 41.1303 34.3699 40.1029C33.5137 39.0754 33 37.7055 33 35.8219C33 34.6233 33.1712 33.5959 33.685 32.7397C34.1987 31.8835 34.7124 31.1985 35.5686 30.6848C36.4247 30.1711 37.4522 29.9999 38.4796 29.9999C39.6782 29.9999 40.8769 30.3423 42.0756 30.8561L41.0481 33.2534C40.7057 33.0821 40.192 32.9109 39.8495 32.7397C39.507 32.3972 38.9933 32.3972 38.4796 32.3972Z" fill="#2D2828"/>
<path d="M53.9317 41.4728H50.507L47.0823 35.6507V41.4728H44V29.9999H47.0823V35.6507L50.3358 29.9999H53.7605L50.3358 35.4795L53.9317 41.4728Z" fill="#2D2828"/>
<path d="M63.3906 33.7671C63.3906 34.9658 63.0481 35.9932 62.1919 36.6781C61.507 37.3631 60.3083 37.7055 58.9385 37.7055H58.0823V41.4728H55V29.9999H58.9385C60.3083 29.9999 61.507 30.3423 62.1919 31.0273C63.0481 31.7122 63.3906 32.7397 63.3906 33.7671ZM58.0823 35.3082H58.596C59.1097 35.3082 59.4522 35.137 59.6234 34.9658C59.9659 34.6233 59.9659 34.2808 59.9659 33.9383C59.9659 33.0821 59.4522 32.7397 58.7672 32.7397H57.911V35.3082H58.0823Z" fill="#2D2828"/>
<path d="M72.2194 41.4728L71.7057 39.2467H67.9385L67.4247 41.4728H64L67.7672 29.9999H71.8769L75.6441 41.4728H72.2194ZM71.0207 36.8494L70.507 34.9658C70.3358 34.6233 70.3358 33.9383 70.1645 33.4246C69.9933 32.7397 69.8221 32.226 69.8221 32.0547C69.8221 32.3972 69.6508 32.7397 69.4796 33.4246C69.3083 34.1096 68.9659 35.3082 68.6234 37.0206H71.0207V36.8494Z" fill="#2D2828"/>
<path d="M86.7605 41.4728H83.6782V36.8494H80.0823V41.4728H77V29.9999H80.0823V34.2808H83.6782V29.9999H86.7605V41.4728Z" fill="#2D2828"/>
</svg>
