<svg width="20" height="20" viewBox="0 0 20 20" fill="none" xmlns="http://www.w3.org/2000/svg">
<path d="M17.6562 2H2.34375C1.05141 2 0 3.05141 0 4.34375V6.27715L8.60121 12.6748C9.01953 12.986 9.50977 13.1416 10 13.1416C10.4902 13.1416 10.9805 12.986 11.3988 12.6748L20 6.27715V4.34375C20 3.05141 18.9486 2 17.6562 2ZM18.4375 5.49203L10.4663 11.4211C10.1874 11.6286 9.81262 11.6286 9.53375 11.4211L1.5625 5.49203V4.34375C1.5625 3.91297 1.91297 3.5625 2.34375 3.5625H17.6562C18.087 3.5625 18.4375 3.91297 18.4375 4.34375V5.49203ZM18.4375 9.38668L20 8.22449V15.9062C20 17.1986 18.9486 18.25 17.6562 18.25H2.34375C1.05141 18.25 0 17.1986 0 15.9062V8.22449L1.5625 9.38668V15.9062C1.5625 16.337 1.91297 16.6875 2.34375 16.6875H17.6562C18.087 16.6875 18.4375 16.337 18.4375 15.9062V9.38668Z" fill="#E73237"/>
</svg>
