<svg width="9" height="8" viewBox="0 0 9 8" fill="none" xmlns="http://www.w3.org/2000/svg">
<path d="M7.92391 1.75217H6.98478L6.4663 0.969565C6.27065 0.676087 5.92826 0.5 5.57609 0.5H3.42391C3.07174 0.5 2.72935 0.676087 2.5337 0.969565L2.01522 1.75217H1.07609C0.479348 1.75217 0 2.23152 0 2.82826V6.62391C0 7.22065 0.479348 7.7 1.07609 7.7H7.92391C8.52065 7.7 9 7.22065 9 6.62391V2.82826C9 2.23152 8.52065 1.75217 7.92391 1.75217ZM4.5 6.81956C3.15978 6.81956 2.07391 5.7337 2.07391 4.39348C2.07391 3.05326 3.15978 1.97717 4.5 1.97717C5.84022 1.97717 6.92609 3.06304 6.92609 4.40326C6.92609 5.7337 5.84022 6.81956 4.5 6.81956Z" fill="white"/>
<path d="M4.5 3.28506C3.88464 3.28506 3.38263 3.78706 3.38263 4.40242C3.38263 5.01778 3.88464 5.51168 4.5 5.51168C5.11536 5.51168 5.61736 5.00968 5.61736 4.39432C5.61736 3.77896 5.11536 3.28506 4.5 3.28506Z" fill="white"/>
</svg>
